<svg xmlns="http://www.w3.org/2000/svg" width="208" height="35" viewBox="0 0 208 35" fill="none"><g clip-path="url(#clip0_203_16)"><path d="M78.0434 3.48975L75.1382 25.4972H83.8308L81.0487 3.48975H78.0396H78.0434ZM77.3392 23.6845L79.5249 5.24614L81.7105 23.6845H77.3431H77.3392Z" fill="#5C502D"></path><path d="M82.2569 33.1461C82.0606 33.4463 81.822 33.7466 81.5411 34.0468H88.4329C88.2097 33.7991 88.0135 33.5402 87.8441 33.2662C87.7018 33.0485 87.5632 32.8008 87.4247 32.5306C87.2823 32.2567 87.1861 31.9977 87.1284 31.75C87.1015 31.6412 87.0284 31.1495 86.9168 30.2751C86.8052 29.4006 86.659 28.2935 86.4743 26.9575C86.2934 25.6176 86.0972 24.1164 85.8855 22.4501C85.6739 20.7838 85.4661 19.0837 85.2545 17.3498C85.0428 15.616 84.835 13.9159 84.6234 12.2495C84.4117 10.5832 84.2232 9.10078 84.0577 7.80225C83.8884 6.50372 83.7499 5.44538 83.6383 4.62723C83.5267 3.80909 83.469 3.36999 83.469 3.31745C83.4113 3.0735 83.4459 2.79203 83.5729 2.47678C83.6999 2.16153 83.8461 1.8688 84.0154 1.59483C84.2116 1.29459 84.4502 0.979341 84.7311 0.652832H74.3108C74.5609 0.979341 74.7879 1.29459 74.9842 1.59483C75.1535 1.8688 75.3074 2.16153 75.4459 2.47678C75.5845 2.79203 75.6268 3.09977 75.5729 3.40001C75.546 3.48258 75.4806 3.94044 75.3844 4.7736C75.2843 5.60676 75.1458 6.68762 74.9649 8.00867C74.7841 9.33347 74.5878 10.8309 74.3762 12.4972C74.1645 14.1636 73.9491 15.8712 73.7259 17.62C73.5027 19.3689 73.2834 21.084 73.0756 22.7616C72.8639 24.443 72.6677 25.9517 72.4868 27.2877C72.306 28.6275 72.1636 29.7196 72.0674 30.5641C71.9673 31.4122 71.9058 31.8889 71.8788 31.9977C71.8211 32.2154 71.7326 32.4405 71.6056 32.6732C71.4787 32.9059 71.3478 33.1311 71.2054 33.3488C71.0361 33.5927 70.8399 33.8254 70.6167 34.0468H77.4661C77.2122 33.7466 76.989 33.4313 76.7927 33.1048C76.6234 32.8309 76.4772 32.5231 76.3502 32.1816C76.2232 31.8401 76.1886 31.5061 76.2463 31.1796L76.7081 27.8206H82.2953C82.3492 28.1772 82.4069 28.5299 82.4647 28.8865C82.5185 29.1867 82.5762 29.5357 82.634 29.9298C82.6878 30.3276 82.7456 30.7142 82.8033 31.097C82.861 31.4798 82.8264 31.8476 82.6994 32.2041C82.5724 32.5606 82.4262 32.8721 82.2569 33.1461ZM75.0765 25.9779L74.1838 32.7483C74.1684 32.8684 74.0606 32.9585 73.9414 32.9585C73.9298 32.9585 73.9221 32.9585 73.9106 32.9585C73.7759 32.9397 73.6797 32.8196 73.6989 32.6882L77.5893 3.21612C77.6047 3.09602 77.7085 3.00595 77.8317 3.00595H81.2718C81.3949 3.00595 81.5027 3.09602 81.5142 3.21612L85.2314 32.6169C85.2468 32.7483 85.1506 32.8684 85.0159 32.8834C84.8812 32.8984 84.7581 32.8046 84.7427 32.6732L83.8961 25.9704H75.0765V25.9779Z" fill="#5C502D"></path><path d="M163.207 3.48975L160.302 25.4972H168.994L166.212 3.48975H163.203H163.207ZM162.395 23.6845L164.581 5.24614L166.766 23.6845H162.399H162.395Z" fill="#5C502D"></path><path d="M167.313 33.1461C167.117 33.4463 166.878 33.7466 166.597 34.0468H173.489C173.266 33.7991 173.07 33.5402 172.9 33.2662C172.758 33.0485 172.619 32.8008 172.481 32.5306C172.339 32.2567 172.242 31.9977 172.185 31.75C172.158 31.6412 172.085 31.1495 171.973 30.2751C171.861 29.4006 171.715 28.2935 171.53 26.9575C171.35 25.6176 171.153 24.1164 170.942 22.4501C170.73 20.7838 170.522 19.0837 170.311 17.3498C170.099 15.616 169.891 13.9159 169.68 12.2495C169.468 10.5832 169.279 9.10078 169.114 7.80225C168.945 6.50372 168.806 5.44538 168.694 4.62723C168.583 3.80909 168.525 3.36999 168.525 3.31745C168.467 3.0735 168.502 2.79203 168.629 2.47678C168.756 2.16153 168.902 1.8688 169.072 1.59483C169.268 1.29459 169.506 0.979341 169.787 0.652832H159.367C159.621 0.979341 159.844 1.29459 160.04 1.59483C160.21 1.8688 160.364 2.16153 160.502 2.47678C160.641 2.79203 160.683 3.09977 160.629 3.40001C160.602 3.48258 160.537 3.94044 160.441 4.7736C160.34 5.60676 160.202 6.68762 160.021 8.00867C159.836 9.33347 159.644 10.8309 159.432 12.4972C159.221 14.1636 159.005 15.8712 158.782 17.62C158.559 19.3689 158.34 21.084 158.132 22.7616C157.924 24.443 157.724 25.9517 157.543 27.2877C157.362 28.6275 157.22 29.7196 157.124 30.5641C157.024 31.4122 156.962 31.8889 156.935 31.9977C156.877 32.2154 156.789 32.4405 156.662 32.6732C156.535 32.9059 156.404 33.1311 156.262 33.3488C156.092 33.5927 155.896 33.8254 155.673 34.0468H162.522C162.272 33.7466 162.045 33.4313 161.849 33.1048C161.68 32.8309 161.533 32.5231 161.406 32.1816C161.279 31.8401 161.245 31.5061 161.302 31.1796L161.764 27.8206H167.352C167.405 28.1772 167.463 28.5299 167.521 28.8865C167.575 29.1867 167.632 29.5357 167.69 29.9298C167.744 30.3276 167.802 30.7142 167.859 31.097C167.913 31.4798 167.879 31.8476 167.756 32.2041C167.629 32.5606 167.482 32.8721 167.313 33.1461ZM160.244 25.9779L159.352 32.7483C159.336 32.8684 159.228 32.9585 159.109 32.9585C159.098 32.9585 159.09 32.9585 159.078 32.9585C158.944 32.9397 158.847 32.8196 158.867 32.6882L162.757 3.21612C162.772 3.09602 162.876 3.00595 162.999 3.00595H166.44C166.563 3.00595 166.67 3.09602 166.682 3.21612L170.399 32.6169C170.415 32.7483 170.318 32.8684 170.184 32.8834C170.049 32.8984 169.926 32.8046 169.91 32.6732L169.064 25.9704H160.244V25.9779Z" fill="#5C502D"></path><path d="M38.6324 32.4107C38.49 32.1104 38.4207 31.7839 38.4207 31.4274V3.1562C38.4207 2.91225 38.49 2.64955 38.6324 2.37933C38.7709 2.10536 38.9248 1.86142 39.0941 1.63999C39.2904 1.36603 39.5135 1.10707 39.7675 0.859375H32.8758C33.1297 1.10707 33.3529 1.36603 33.5492 1.63999C33.7185 1.85767 33.8724 2.10536 34.0109 2.37933C34.1494 2.6533 34.2226 2.91225 34.2226 3.1562V21.3093L28.2158 3.56902C28.1312 3.24252 28.1466 2.91976 28.2582 2.60451C28.3698 2.28926 28.5121 1.99653 28.6776 1.72256C28.8739 1.42232 29.1124 1.1371 29.3933 0.863128H21.832C22.0552 1.1371 22.2669 1.42232 22.4631 1.72256C22.6324 1.9665 22.7863 2.22171 22.9249 2.48066C23.0634 2.73962 23.1365 2.9648 23.1365 3.1562L23.1788 31.4274C23.1788 31.7839 23.1096 32.1179 22.9672 32.4294C22.8248 32.7447 22.6747 33.0224 22.5054 33.2701C22.3092 33.5703 22.086 33.8293 21.832 34.0507H28.7238C28.4737 33.833 28.2466 33.5853 28.0504 33.3114C27.8811 33.0937 27.7272 32.8272 27.5886 32.512C27.4462 32.1967 27.377 31.8515 27.377 31.4687V13.5632L33.68 30.8944C33.8493 31.3598 33.8839 31.7877 33.7839 32.1855C33.6838 32.5833 33.553 32.9173 33.3837 33.1875C33.1874 33.514 32.9335 33.803 32.6256 34.047H39.7675C39.5174 33.7993 39.2904 33.529 39.0941 33.2288C38.9248 32.9811 38.7709 32.7109 38.6324 32.4107ZM36.7969 32.6884C36.7969 32.8047 36.7122 32.9023 36.5968 32.9248C36.4813 32.9436 36.3659 32.8798 36.3236 32.7747L25.5107 4.66489V32.7222C25.5107 32.8535 25.3991 32.9623 25.2644 32.9623C25.1298 32.9623 25.0182 32.8535 25.0182 32.7222V3.34009C25.0182 3.22375 25.1028 3.12242 25.2183 3.10366C25.3376 3.08489 25.4491 3.14494 25.4915 3.25377L36.3043 31.3598V3.29506C36.3043 3.1637 36.4159 3.05487 36.5506 3.05487C36.6853 3.05487 36.7969 3.1637 36.7969 3.29506V32.6884Z" fill="#5C502D"></path><path d="M49.7873 32.41C49.6603 32.0835 49.5988 31.727 49.5988 31.3442V3.31693C49.5988 2.96415 49.6603 2.63389 49.7873 2.33365C49.9143 2.03342 50.0605 1.77446 50.2298 1.55303C50.4261 1.27907 50.6493 1.04638 50.9032 0.85498H43.9307C44.1538 1.10268 44.3655 1.37289 44.5617 1.67313C44.731 1.92083 44.885 2.19104 45.0235 2.49128C45.162 2.79152 45.2351 3.09175 45.2351 3.39199V31.4192C45.2351 31.7758 45.1659 32.1023 45.0235 32.4025C44.8811 32.7027 44.731 32.9767 44.5617 33.2207C44.3655 33.5209 44.1538 33.7949 43.9307 34.0388H50.9032C50.6493 33.8211 50.4261 33.5622 50.2298 33.2582C50.0605 33.0105 49.9143 32.7253 49.7873 32.3988V32.41ZM47.7055 32.7853C47.7055 32.9167 47.5939 33.0255 47.4593 33.0255C47.3246 33.0255 47.213 32.9167 47.213 32.7853V3.24938C47.213 3.11803 47.3246 3.00919 47.4593 3.00919C47.5939 3.00919 47.7055 3.11803 47.7055 3.24938V32.7853Z" fill="#5C502D"></path><path d="M69.8086 0.941406H54.8938L53.7163 7.17135C54.1088 6.76227 54.5128 6.39073 54.9361 6.06422C55.2709 5.76398 55.6442 5.49752 56.0482 5.26484C56.4522 5.03215 56.8255 4.91581 57.1603 4.91581H60.0578V31.7533C60.0578 32.0273 59.9885 32.2938 59.8462 32.5527C59.7038 32.8117 59.5537 33.0519 59.3844 33.2695C59.1881 33.5435 58.965 33.8025 58.711 34.0502H65.8105C65.5296 33.8325 65.2911 33.5848 65.0948 33.3108C64.9255 33.0932 64.7716 32.853 64.6331 32.594C64.4907 32.3351 64.4214 32.0799 64.4214 31.8359V4.91581H67.4883C67.823 4.91581 68.1963 5.03215 68.6003 5.26484C69.0082 5.49752 69.393 5.76398 69.7547 6.06422C70.1742 6.39073 70.582 6.76227 70.9745 7.17135L69.7971 0.941406H69.8086ZM68.7427 3.18944H62.5128V32.7854C62.5128 32.9168 62.4012 33.0256 62.2665 33.0256C62.1319 33.0256 62.0203 32.9168 62.0203 32.7854V3.18944H55.8943C55.7596 3.18944 55.648 3.0806 55.648 2.94925C55.648 2.81789 55.7596 2.70906 55.8943 2.70906H68.7427C68.8774 2.70906 68.989 2.81789 68.989 2.94925C68.989 3.0806 68.8774 3.18944 68.7427 3.18944Z" fill="#5C502D"></path><path d="M188.812 0.941406H173.897L172.719 7.17135C173.112 6.76227 173.516 6.39073 173.939 6.06422C174.274 5.76398 174.647 5.49752 175.051 5.26484C175.455 5.03215 175.828 4.91581 176.163 4.91581H179.061V31.7533C179.061 32.0273 178.991 32.2938 178.849 32.5527C178.707 32.8117 178.557 33.0519 178.387 33.2695C178.191 33.5435 177.968 33.8025 177.714 34.0502H184.813C184.533 33.8325 184.294 33.5848 184.098 33.3108C183.928 33.0932 183.775 32.853 183.636 32.594C183.494 32.3351 183.424 32.0799 183.424 31.8359V4.91581H186.491C186.826 4.91581 187.199 5.03215 187.603 5.26484C188.007 5.49752 188.396 5.76398 188.758 6.06422C189.177 6.39073 189.585 6.76227 189.977 7.17135L188.8 0.941406H188.812ZM187.684 3.18944H181.454V32.7854C181.454 32.9168 181.343 33.0256 181.208 33.0256C181.073 33.0256 180.962 32.9168 180.962 32.7854V3.18944H174.836C174.701 3.18944 174.589 3.0806 174.589 2.94925C174.589 2.81789 174.701 2.70906 174.836 2.70906H187.684C187.819 2.70906 187.93 2.81789 187.93 2.94925C187.93 3.0806 187.819 3.18944 187.684 3.18944Z" fill="#5C502D"></path><path d="M112.294 21.1857C112.294 21.1594 112.364 21.0844 112.506 20.9605C112.645 20.8367 112.841 20.7128 113.095 20.5927C113.345 20.4689 113.641 20.3525 113.976 20.2437C114.311 20.1349 114.676 20.0936 115.069 20.1199V27.577C115.069 28.2075 114.849 28.7329 114.418 29.1533C113.984 29.5774 113.445 29.7875 112.802 29.7875H111.544C110.898 29.7875 110.363 29.5774 109.928 29.1533C109.493 28.7292 109.278 28.2038 109.278 27.577V6.47404C109.278 5.84729 109.493 5.32187 109.928 4.89779C110.363 4.4737 110.901 4.26354 111.544 4.26354H112.845C113.46 4.26354 113.991 4.4737 114.442 4.89779C114.888 5.32187 115.115 5.84729 115.115 6.47404V8.4406C115.115 8.79713 115.046 9.12364 114.903 9.42388C114.761 9.72412 114.611 9.98307 114.442 10.2007C114.245 10.4747 114.022 10.7187 113.768 10.9401H120.783C120.529 10.6136 120.306 10.2721 120.11 9.91552C119.94 9.61528 119.786 9.27376 119.648 8.89096C119.505 8.50815 119.436 8.12535 119.436 7.74254V6.47404C119.436 5.57332 119.259 4.73266 118.909 3.95579C118.559 3.17517 118.089 2.49588 117.501 1.90667C116.912 1.3212 116.219 0.855832 115.423 0.514311C114.626 0.17279 113.764 0.00390625 112.841 0.00390625H111.54C110.617 0.00390625 109.755 0.176543 108.958 0.514311C108.158 0.855832 107.461 1.3212 106.857 1.90667C106.253 2.49588 105.78 3.17517 105.43 3.95579C105.079 4.73266 104.902 5.57332 104.902 6.47404V27.577C104.902 28.4777 105.076 29.3184 105.43 30.0953C105.78 30.8759 106.257 31.5552 106.857 32.1444C107.457 32.7336 108.158 33.1952 108.958 33.5368C109.755 33.8783 110.617 34.0472 111.54 34.0472H112.798C113.722 34.0472 114.584 33.8783 115.384 33.5368C116.181 33.1952 116.881 32.7299 117.485 32.1444C118.086 31.5552 118.563 30.8759 118.913 30.0953C119.263 29.3184 119.44 28.4777 119.44 27.577V15.9803H112.298V21.1857H112.294ZM114.276 17.9131H117.397C117.531 17.9131 117.643 18.0219 117.643 18.1533V27.4607C117.643 27.517 117.439 32.4446 112.302 32.4446C107.165 32.4446 106.692 27.9298 106.688 27.8848V6.70672C106.684 6.63917 106.615 4.81147 107.977 3.42287C108.947 2.43584 110.378 1.93669 112.233 1.93669C112.333 1.93669 114.884 1.88039 116.331 3.25398C116.97 3.86197 117.297 4.65009 117.297 5.59959V9.12364C117.297 9.25499 117.185 9.36383 117.05 9.36383C116.916 9.36383 116.804 9.25499 116.804 9.12364V5.59959C116.804 4.7852 116.531 4.10966 115.988 3.59926C114.688 2.36453 112.264 2.41707 112.237 2.41707C110.513 2.41707 109.201 2.86743 108.331 3.75688C107.115 4.99912 107.177 6.68045 107.177 6.69922V27.866C107.192 28.0124 107.634 31.968 112.298 31.968C116.962 31.968 117.139 27.6408 117.147 27.4569V18.3935H114.272C114.138 18.3935 114.026 18.2847 114.026 18.1533C114.026 18.0219 114.138 17.9131 114.272 17.9131H114.276Z" fill="#5C502D"></path><path d="M136.352 29.2132C136.129 29.352 135.848 29.4946 135.513 29.6448C135.178 29.7949 134.813 29.8849 134.42 29.9112H128.706V18.9713H132.823C133.216 18.9713 133.558 19.0388 133.851 19.1777C134.143 19.3166 134.39 19.4629 134.586 19.6281C134.809 19.8195 135.005 20.0259 135.175 20.2435V13.5632C134.951 13.8109 134.713 14.0286 134.459 14.22C134.236 14.3851 133.982 14.5278 133.701 14.6516C133.42 14.7755 133.127 14.8355 132.82 14.8355H128.702V4.91639H134.289C134.682 4.97268 135.032 5.06651 135.34 5.20162C135.648 5.33672 135.929 5.47558 136.179 5.61069C136.46 5.77582 136.725 5.96722 136.979 6.1849L136.14 0.776855H123.157C123.38 1.05082 123.592 1.33605 123.788 1.63629C123.958 1.88023 124.112 2.1542 124.25 2.45444C124.389 2.75467 124.462 3.04365 124.462 3.31387V31.0934C124.462 31.4199 124.392 31.7577 124.25 32.0954C124.108 32.437 123.958 32.7597 123.788 33.06C123.592 33.3865 123.38 33.7167 123.157 34.0432H136.225L137.064 28.6352C136.868 28.8529 136.629 29.0443 136.348 29.2094L136.352 29.2132ZM134.909 32.4895H126.632C126.497 32.4895 126.386 32.3807 126.386 32.2493V2.89353C126.386 2.76218 126.497 2.65334 126.632 2.65334H134.178C134.313 2.65334 134.424 2.76218 134.424 2.89353C134.424 3.02489 134.313 3.13373 134.178 3.13373H126.878V16.7308H133.72C133.855 16.7308 133.966 16.8396 133.966 16.971C133.966 17.1023 133.855 17.2111 133.72 17.2111H126.878V32.0091H134.913C135.048 32.0091 135.159 32.118 135.159 32.2493C135.159 32.3807 135.048 32.4895 134.913 32.4895H134.909Z" fill="#5C502D"></path><path d="M153.202 28.4778C152.952 28.6955 152.664 28.9169 152.34 29.1346C152.017 29.3522 151.659 29.5436 151.271 29.7088C150.878 29.8739 150.501 29.9565 150.135 29.9565H146.187V3.15644C146.187 2.77364 146.299 2.33829 146.522 1.84665C146.745 1.35501 147.084 0.97221 147.53 0.698242H140.515C140.739 0.889644 140.95 1.12233 141.147 1.3963C141.316 1.61397 141.47 1.88794 141.608 2.21444C141.747 2.54095 141.82 2.9125 141.82 3.32157V31.1011C141.82 31.4276 141.751 31.7654 141.608 32.1069C141.466 32.4484 141.316 32.7712 141.147 33.0714C140.95 33.3979 140.727 33.7282 140.473 34.0547H152.321L153.749 27.9486C153.637 28.0837 153.456 28.2639 153.202 28.4815V28.4778ZM150.824 32.4034H144.033C143.898 32.4034 143.786 32.2946 143.786 32.1632V3.1602C143.786 3.02884 143.898 2.92 144.033 2.92C144.167 2.92 144.279 3.02884 144.279 3.1602V31.9193H150.824C150.959 31.9193 151.071 32.0281 151.071 32.1595C151.071 32.2908 150.959 32.3996 150.824 32.3996V32.4034Z" fill="#5C502D"></path><path d="M200.498 2.28174H199.394C197.042 2.28174 195.134 4.14697 195.134 6.44004V27.8545C195.134 30.1476 197.046 32.0091 199.394 32.0091H200.498C202.849 32.0091 204.761 30.1438 204.761 27.8545V6.44004C204.761 4.14697 202.849 2.28174 200.498 2.28174ZM202.837 27.4567C202.837 28.0572 202.618 28.6089 202.183 29.1118C201.745 29.6147 201.202 29.8699 200.556 29.8699L199.286 29.9112C198.635 29.9112 198.093 29.6522 197.658 29.1343C197.219 28.6164 197.004 28.0572 197.004 27.4567V6.83785C197.004 6.23738 197.223 5.67818 197.658 5.16027C198.097 4.64236 198.639 4.38341 199.286 4.38341H200.598C201.217 4.38341 201.756 4.64236 202.206 5.16027C202.657 5.67818 202.884 6.23738 202.884 6.83785L202.841 27.4567H202.837Z" fill="#5C502D"></path><path d="M206.682 4.21788C206.332 3.426 205.858 2.72419 205.258 2.10871C204.658 1.49322 203.957 1.00908 203.165 0.652552C202.368 0.296019 201.51 0.119629 200.587 0.119629H199.29C198.366 0.119629 197.508 0.296019 196.712 0.652552C195.915 1.00908 195.211 1.49322 194.595 2.10871C193.98 2.72419 193.498 3.426 193.148 4.21788C192.798 5.00976 192.625 5.85793 192.625 6.75865V27.5727C192.625 28.4734 192.798 29.3215 193.148 30.1134C193.498 30.9053 193.98 31.6109 194.595 32.2226C195.211 32.8381 195.915 33.3222 196.712 33.675C197.508 34.0315 198.366 34.2079 199.29 34.2079L200.548 34.1666C201.468 34.1666 202.33 33.9902 203.126 33.6337C203.923 33.2772 204.627 32.8006 205.243 32.2001C205.858 31.5996 206.339 30.9015 206.686 30.1097C207.036 29.3178 207.209 28.4696 207.209 27.5689V6.75865C207.209 5.85793 207.036 5.00976 206.686 4.21788H206.682ZM205.25 27.8504C205.25 30.4062 203.118 32.4853 200.494 32.4853H199.39C196.769 32.4853 194.638 30.4062 194.638 27.8504V6.43964C194.638 3.88386 196.769 1.80096 199.39 1.80096H200.494C203.115 1.80096 205.25 3.88011 205.25 6.43964V27.8541V27.8504Z" fill="#5C502D"></path><path d="M8.29097 3.48975L5.38574 25.4972H14.0784L11.2963 3.48975H8.28713H8.29097ZM7.51368 23.6845L9.69934 5.24614L11.885 23.6845H7.51753H7.51368Z" fill="#5C502D"></path><path d="M12.4313 33.1461C12.2351 33.4463 11.9965 33.7466 11.7156 34.0468H18.6073C18.3841 33.7991 18.1879 33.5402 18.0186 33.2662C17.8762 33.0485 17.7377 32.8008 17.5991 32.5306C17.4606 32.2567 17.3606 31.9977 17.3067 31.75C17.2798 31.6412 17.2067 31.1495 17.0951 30.2751C16.9835 29.4006 16.8372 28.2935 16.6525 26.9575C16.4717 25.6176 16.2754 24.1164 16.0638 22.4501C15.8522 20.7838 15.6444 19.0837 15.4327 17.3498C15.2211 15.616 15.0133 13.9159 14.8017 12.2495C14.59 10.5832 14.4015 9.10078 14.236 7.80225C14.0667 6.50372 13.9282 5.44538 13.8166 4.62723C13.705 3.80909 13.6473 3.36999 13.6473 3.31745C13.5895 3.0735 13.628 2.79203 13.7512 2.47678C13.8781 2.16153 14.0244 1.8688 14.1937 1.59483C14.3899 1.29459 14.6285 0.979341 14.9094 0.652832H4.4929C4.74302 0.979341 4.97005 1.29459 5.1663 1.59483C5.33561 1.8688 5.48953 2.16153 5.62805 2.47678C5.76658 2.79203 5.80891 3.09977 5.75504 3.40001C5.7281 3.48258 5.66269 3.94044 5.56649 4.7736C5.46644 5.60676 5.32791 6.68762 5.14706 8.00867C4.96235 9.33347 4.76995 10.8309 4.55831 12.4972C4.34667 14.1636 4.13119 15.8712 3.908 17.62C3.68482 19.3689 3.46548 21.084 3.25769 22.7616C3.04605 24.443 2.84981 25.9517 2.66895 27.2877C2.4881 28.6275 2.34572 29.7196 2.24952 30.5641C2.14947 31.4122 2.0879 31.8889 2.06097 31.9977C2.00325 32.2154 1.91474 32.4405 1.78776 32.6732C1.66078 32.9059 1.52995 33.1311 1.38757 33.3488C1.21826 33.5927 1.02201 33.8254 0.798828 34.0431H7.64825C7.39428 33.7428 7.1711 33.4276 6.97485 33.1011C6.80554 32.8271 6.65932 32.5194 6.53233 32.1778C6.40535 31.8363 6.37072 31.5023 6.42844 31.1758L6.89019 27.8169H12.4775C12.5313 28.1734 12.5891 28.5262 12.6468 28.8827C12.7007 29.183 12.7584 29.532 12.8161 29.9261C12.87 30.3239 12.9277 30.7104 12.9854 31.0932C13.0393 31.476 13.0046 31.8438 12.8815 32.2004C12.7545 32.5569 12.6083 32.8684 12.439 33.1424L12.4313 33.1461ZM5.32406 25.9779L4.43133 32.7483C4.41594 32.8684 4.30819 32.9585 4.18891 32.9585C4.17736 32.9585 4.16967 32.9585 4.15812 32.9585C4.02344 32.9397 3.92724 32.8196 3.94648 32.6882L7.83295 3.21987C7.84834 3.09977 7.95224 3.0097 8.07538 3.0097H11.5155C11.6386 3.0097 11.7464 3.09977 11.7579 3.21987L15.4751 32.6207C15.4905 32.752 15.3943 32.8721 15.2596 32.8872C15.1249 32.9022 15.0018 32.8083 14.9864 32.677L14.1398 25.9742H5.32406V25.9779Z" fill="#5C502D"></path></g><defs><clipPath id="clip0_203_16"><rect width="206.41" height="34.2121" fill="white" transform="translate(0.794922)"></rect></clipPath></defs></svg>