<?xml version="1.0" encoding="UTF-8"?>
<svg xmlns="http://www.w3.org/2000/svg" width="110" height="42" viewBox="0 0 110 42" fill="none">
  <g clip-path="url(#clip0_104_57)">
    <path d="M89.8213 14.7223C89.0539 14.7223 88.3209 14.7395 87.5879 14.7051C87.4413 14.7051 87.2516 14.4901 87.174 14.3267C86.51 12.8734 85.8632 11.4029 85.2078 9.94099C85.1388 9.79479 85.0612 9.6486 84.8974 9.51961V14.6879H82.3966V2.26162C83.1727 2.26162 83.9229 2.24442 84.6732 2.27882C84.8025 2.27882 84.9836 2.52821 85.044 2.6916C85.7597 4.59209 86.4496 6.49258 87.1481 8.39307C87.174 8.46187 87.1998 8.52207 87.3206 8.58226V2.31322H89.83V14.7223H89.8213Z" fill="#1D1D1B"></path>
    <path d="M43.6172 14.7223V2.26159H44.2381C45.8851 2.26159 47.5408 2.27879 49.1879 2.25299C49.6881 2.24439 50.033 2.41638 50.4124 2.74317C50.9902 3.25054 51.1799 3.8009 51.1627 4.55766C51.1195 7.3611 51.1454 10.1731 51.1454 12.9766C51.1454 13.6989 50.1192 14.7223 49.3862 14.7223C47.4805 14.7223 45.5833 14.7223 43.6172 14.7223ZM48.5756 4.83285H46.1783V12.1596H48.5756V4.83285Z" fill="#1D1D1B"></path>
    <path d="M17.5055 14.7051H15.0479V9.79477H12.5816V14.6793H10.0291V14.1461C10.0291 10.7579 10.0291 7.3697 10.0291 3.9815C10.0291 3.25054 11.0035 2.2702 11.7279 2.2616C13.1249 2.2616 14.5218 2.2616 15.9188 2.2616C16.4535 2.2616 17.5573 3.31074 17.5573 3.83531C17.5573 7.3783 17.5573 10.9213 17.5573 14.4643C17.5573 14.5159 17.5314 14.5761 17.5055 14.6965V14.7051ZM14.9961 4.83285H12.6247V7.21491H14.9961V4.83285Z" fill="#1D1D1B"></path>
    <path d="M110 14.6966H107.491V9.80343H105.033V14.6794H102.524C102.515 14.4816 102.498 14.2752 102.498 14.0774C102.498 10.7322 102.498 7.38697 102.498 4.04176C102.498 3.23341 103.464 2.27026 104.265 2.27026C105.645 2.27026 107.016 2.27026 108.396 2.27026C108.87 2.27026 109.991 3.27641 109.991 3.73218C110 7.36977 109.991 10.9988 109.991 14.7052L110 14.6966ZM105.05 7.19778H107.422V4.83292H105.05V7.19778Z" fill="#1D1D1B"></path>
    <path d="M61.1485 12.1855V14.6793H53.6979V2.29602H61.1485V4.78988H56.2245V7.22354H61.1312V9.726H56.2332V12.1855H61.1399H61.1485Z" fill="#1D1D1B"></path>
    <path d="M37.6066 7.22354V9.7346H32.7172V12.1941H37.6152V14.6707H30.1819V2.29602H37.6066V4.76408H32.7085V7.22354H37.6066Z" fill="#1D1D1B"></path>
    <path d="M20.1012 2.28748H27.5691V4.77273H22.6451V7.23219H27.5691V9.75185H22.6192V14.6966H20.1012V2.28748Z" fill="#1D1D1B"></path>
    <path d="M67.1503 14.6793V2.31323H74.6355V4.77269H69.7029V7.24075H74.6699C74.6699 8.03191 74.6958 8.74566 74.6441 9.45082C74.6441 9.56262 74.3336 9.74321 74.1698 9.74321C72.9108 9.76901 71.6518 9.76041 70.3841 9.76041C70.1772 9.76041 69.9616 9.76041 69.6856 9.76041V14.6879H67.1417L67.1503 14.6793Z" fill="#1D1D1B"></path>
    <path d="M99.9538 2.26164V4.78129H95.0039V12.1941H99.9365V14.6879C99.7899 14.6965 99.6606 14.7137 99.5312 14.7137C97.7289 14.7137 95.918 14.7137 94.1157 14.7137C93.5035 14.7137 92.4428 13.6732 92.4428 13.0626C92.4428 10.0012 92.4255 6.94837 92.46 3.88694C92.46 3.58596 92.7705 3.26778 92.9688 2.984C93.3914 2.37343 93.9777 2.21004 94.7194 2.23584C96.444 2.28744 98.1687 2.25304 99.9538 2.25304V2.26164Z" fill="#1D1D1B"></path>
    <path d="M7.4679 2.31323V4.77269H2.57844V12.1941H7.4679V14.6879C7.31268 14.6965 7.14884 14.7223 6.98499 14.7223C5.2172 14.7223 3.4494 14.7223 1.69023 14.7223C1.02623 14.7223 0.00866699 13.7076 0.00866699 13.0454C0.00866699 10.0098 0.00866699 6.96557 0.00866699 3.92994C0.00866699 3.37097 0.991734 2.27023 1.52638 2.26163C3.4494 2.25303 5.37242 2.26163 7.28681 2.26163C7.33855 2.26163 7.39891 2.28743 7.47653 2.31323H7.4679Z" fill="#1D1D1B"></path>
    <path d="M79.6716 14.6966H77.2225V2.30469H79.6716V14.6966Z" fill="#1D1D1B"></path>
    <path d="M92.4515 25.231H90.0714C90.5457 25.8244 90.9338 26.3231 91.3218 26.8133C91.7012 27.2949 92.0893 27.7765 92.4946 28.301C91.089 28.6536 90.0283 28.3526 89.4419 26.9079L89.3212 27.0283V28.3526H87.7172C87.7086 28.1978 87.6827 28.0344 87.6827 27.8625C87.6827 25.79 87.6827 23.7175 87.6827 21.645C87.6827 20.9829 88.2605 20.4239 88.9245 20.4153C89.5454 20.4153 90.1663 20.4153 90.7872 20.4153C92.0289 20.4153 92.4601 20.8539 92.4601 22.1094C92.4601 23.1155 92.4601 24.1217 92.4601 25.231H92.4515ZM89.3298 22.0664V23.5455H90.7785V22.0664H89.3298Z" fill="#1D1D1B"></path>
    <path d="M52.1285 26.9165V28.3526H50.5073V27.2518C50.5073 25.3943 50.5073 23.5368 50.5073 21.6794C50.5073 21 51.0937 20.4238 51.7836 20.4238C52.4217 20.4238 53.0598 20.4238 53.7066 20.4238C54.8104 20.4238 55.2847 20.8882 55.2847 21.9717C55.2847 22.9951 55.2847 24.0184 55.2847 25.0504C55.2847 25.0848 55.2674 25.1278 55.2416 25.2224H52.9046C53.7756 26.3231 54.5517 27.3034 55.414 28.387C54.6724 28.387 53.9826 28.5676 53.4738 28.3354C52.965 28.1118 52.6373 27.4754 52.1371 26.9165H52.1285ZM53.629 22.0663H52.1803V23.554H53.629V22.0663Z" fill="#1D1D1B"></path>
    <path d="M66.0467 25.2568H64.529V28.344H62.9078C62.8992 28.172 62.8733 27.9915 62.8733 27.8109C62.8733 25.7814 62.8733 23.7519 62.8733 21.7224C62.8733 21.0172 63.4683 20.4239 64.1754 20.4153C64.8308 20.4153 65.4948 20.4153 66.1502 20.4153C67.2109 20.4153 67.6679 20.8797 67.6679 21.9546C67.6679 23.8723 67.6679 25.7814 67.6679 27.6991V28.3526H66.0381V25.2568H66.0467ZM66.0036 22.0664H64.529V23.5369H66.0036V22.0664Z" fill="#1D1D1B"></path>
    <path d="M22.3606 24.4055C22.3606 25.2568 22.3606 26.1082 22.3606 26.9595C22.3606 27.8883 21.8518 28.3956 20.9032 28.3956C20.3255 28.3956 19.7391 28.3956 19.1613 28.3956C18.0403 28.3956 17.5574 27.9227 17.5574 26.8133C17.5574 25.1278 17.5574 23.4509 17.5574 21.7654C17.5574 20.9915 18.1438 20.4153 18.9285 20.4153C19.5494 20.4153 20.1703 20.4153 20.7911 20.4153C21.8949 20.4153 22.3606 20.8711 22.3606 21.9718C22.3606 22.7801 22.3606 23.5971 22.3606 24.4055ZM19.2303 22.0664V26.7359H20.6877V22.0664H19.2303Z" fill="#1D1D1B"></path>
    <path d="M61.4763 24.4399C61.4763 25.3084 61.4763 26.1856 61.4763 27.0541C61.4763 27.8625 60.933 28.3956 60.1052 28.3956C59.4843 28.3956 58.8634 28.3956 58.2425 28.3956C57.1818 28.3956 56.6903 27.9141 56.6903 26.8735C56.6903 25.188 56.6903 23.5025 56.6903 21.817C56.6903 20.9571 57.2422 20.4153 58.1304 20.4153C58.7513 20.4153 59.3722 20.4153 59.9931 20.4153C60.9761 20.4153 61.4763 20.9141 61.4763 21.8772C61.4763 22.7286 61.4763 23.5799 61.4763 24.4313V24.4399ZM59.812 26.7445V22.075H58.346V26.7445H59.812Z" fill="#1D1D1B"></path>
    <path d="M83.1296 22.0148V23.5885H86.2254V25.2052H83.1469V26.7531H86.234V28.344H81.5084V20.4583H86.2254V22.0148H83.1296Z" fill="#1D1D1B"></path>
    <path d="M42.3927 20.441H47.0925V22.0148H44.0139V23.5885H47.0925V25.2052H44.0225V26.7445H47.0925V28.344H42.3927V20.441Z" fill="#1D1D1B"></path>
    <path d="M36.2011 20.4411H40.9095V22.0062H37.8309V23.5799H40.9009V25.1966H37.8309V26.7445H40.9095V28.3354H36.1925V20.4325L36.2011 20.4411Z" fill="#1D1D1B"></path>
    <path d="M73.8422 20.4152V22.0233H70.7378V23.597C71.3845 23.597 72.0227 23.597 72.6522 23.597C73.2644 23.597 73.8595 24.199 73.8681 24.8096C73.8681 25.4889 73.8681 26.1597 73.8681 26.839C73.8681 27.914 73.3852 28.387 72.29 28.387C71.2466 28.387 70.2031 28.387 69.0993 28.387V26.7789H72.1779V25.2223C71.5743 25.2223 70.9706 25.2223 70.3584 25.2223C69.634 25.2223 69.0476 24.6376 69.0476 23.9238C69.0476 23.2875 69.0476 22.6511 69.0476 22.0061C69.0476 20.8796 69.5219 20.4066 70.6343 20.4066C71.6777 20.4066 72.7212 20.4066 73.825 20.4066L73.8422 20.4152Z" fill="#1D1D1B"></path>
    <path d="M93.8744 28.344V26.7875H96.9702V25.2224C96.332 25.2224 95.7025 25.2224 95.0644 25.2224C94.4521 25.2224 93.8571 24.6204 93.8485 24.0185C93.8485 23.3391 93.8485 22.6684 93.8485 21.989C93.8485 20.8625 94.3056 20.4153 95.4525 20.4153C96.4786 20.4153 97.5048 20.4153 98.5741 20.4153V22.0234H95.5128V23.6057C96.151 23.6057 96.7891 23.6057 97.4186 23.6057C98.0222 23.6057 98.6086 24.2163 98.6172 24.8268C98.6172 25.6008 98.6172 26.3747 98.6172 27.1487C98.6172 27.7937 98.0309 28.3956 97.3927 28.4042C96.3665 28.4042 95.3404 28.4042 94.3055 28.4042C94.159 28.4042 94.0124 28.3784 93.8571 28.3612L93.8744 28.344Z" fill="#1D1D1B"></path>
    <path d="M28.5349 22.0406H25.4305V23.5885H28.5522V25.2052H25.396V28.344H23.8093V20.4583H28.5349V22.0492V22.0406Z" fill="#1D1D1B"></path>
    <path d="M31.6221 22.0234V23.5885H34.7266V25.2224H31.5876V28.3612H30.0182V20.4583H34.7179V22.0148H31.6135L31.6221 22.0234Z" fill="#1D1D1B"></path>
    <path d="M16.169 28.387C14.8755 28.387 13.6509 28.3956 12.4264 28.387C12.047 28.387 11.383 27.6818 11.383 27.2948C11.383 25.36 11.3226 23.4165 11.4261 21.4902C11.4433 21.1204 12.0297 20.5012 12.4005 20.4668C13.6251 20.3378 14.8755 20.4152 16.1603 20.4152V22.0061H13.0559V26.7531H16.169V28.387Z" fill="#1D1D1B"></path>
    <path d="M76.8346 28.3439V22.0491H75.3082V20.4496H80.0338V22.0405H78.473V28.3439H76.8346Z" fill="#1D1D1B"></path>
    <path d="M60.9761 37.8205C60.9761 36.8918 60.9761 35.9631 60.9761 35.0343C60.9761 34.4409 61.5797 33.8304 62.1834 33.8218C62.8991 33.8218 63.6148 33.8218 64.3392 33.8218C65.3223 33.8218 65.831 34.3291 65.8397 35.2923C65.8397 37.0552 65.8397 38.8095 65.8397 40.5724C65.8397 41.2604 65.2274 41.8709 64.5289 41.8709C63.7701 41.8709 63.0198 41.8709 62.261 41.8709C61.5883 41.8709 60.9847 41.2689 60.9847 40.5982C60.9847 39.6694 60.9847 38.7407 60.9847 37.8119L60.9761 37.8205ZM64.1409 35.5159H62.6318V40.1768H64.1409V35.5159Z" fill="#1D1D1B"></path>
    <path d="M72.0657 37.8291C72.0657 38.7579 72.0657 39.6866 72.0657 40.6154C72.0657 41.2947 71.4793 41.8709 70.7894 41.8795C70.1082 41.8795 69.4355 41.8795 68.7543 41.8795C67.7281 41.8795 67.2366 41.4065 67.2366 40.3918C67.2366 38.6289 67.2366 36.8746 67.2366 35.1117C67.2366 34.3807 67.8057 33.8218 68.5387 33.8218C69.2372 33.8218 69.9357 33.8218 70.6342 33.8218C71.5396 33.8218 72.0657 34.3291 72.0657 35.2235C72.0657 36.092 72.0657 36.9606 72.0657 37.8291ZM68.9009 40.1854H70.3755V35.5245H68.9009V40.1854Z" fill="#1D1D1B"></path>
    <path d="M36.5805 33.882V35.4643H33.4157V37.0036H36.546V38.6461H33.407V40.2112H36.5718V41.8451H31.7772V33.882H36.5891H36.5805Z" fill="#1D1D1B"></path>
    <path d="M41.1509 38.6461C40.5559 38.6461 40.0126 38.6461 39.4693 38.6461C38.469 38.6461 38.012 38.1903 38.012 37.1842C38.012 36.5822 38.012 35.9802 38.012 35.3869C38.012 34.2775 38.4604 33.8304 39.5728 33.8304C40.5041 33.8304 41.4354 33.8476 42.3668 33.8304C42.7462 33.8218 42.8928 33.9507 42.8669 34.3291C42.8411 34.6903 42.8669 35.0515 42.8669 35.4729H39.6935V37.038C40.3144 37.038 40.9698 37.038 41.6165 37.038C42.2374 37.038 42.8583 37.6571 42.8583 38.2849C42.8583 39.0933 42.8583 39.9102 42.8583 40.7186C42.8583 41.1915 42.2288 41.8881 41.7718 41.8881C40.5472 41.9053 39.3313 41.8881 38.0637 41.8881V40.2628H41.1509V38.6547V38.6461Z" fill="#1D1D1B"></path>
    <path d="M59.5445 40.2199V41.8194H54.724C54.724 41.054 54.4826 40.2886 55.2414 39.6265C55.983 38.9815 56.5694 38.156 57.3024 37.5024C57.9492 36.9348 58.0268 36.2899 57.8802 35.5073H56.3625V37.0208H54.724V33.8734H59.5531C59.5531 34.957 59.5704 36.0491 59.5359 37.1412C59.5359 37.296 59.3375 37.4594 59.2082 37.597C58.3976 38.4398 57.5697 39.2739 56.647 40.2199H59.5359H59.5445Z" fill="#1D1D1B"></path>
    <path d="M78.2315 41.8537H76.6534V38.6718H73.6007C73.5834 38.4827 73.549 38.3365 73.549 38.1903C73.549 37.2271 73.549 36.2554 73.549 35.2922C73.549 34.2947 74.0232 33.8303 75.0235 33.8303C75.5841 33.8303 76.1446 33.8303 76.7137 33.8303C77.7917 33.8303 78.2401 34.2775 78.2401 35.3524C78.2401 37.5023 78.2401 39.6436 78.2401 41.8537H78.2315ZM76.593 37.0035V35.5158H75.1701V37.0035H76.593Z" fill="#1D1D1B"></path>
    <path d="M45.9109 35.4729H44.3242V33.8562H49.0671V35.4643H47.5494V41.8365H45.9109V35.4729Z" fill="#1D1D1B"></path>
    <path d="M50.0674 40.108C50.3778 40.5208 50.809 40.839 50.7917 41.1314C50.7745 41.4324 50.3261 41.7075 50.0588 41.9999C49.7914 41.7161 49.3344 41.441 49.3171 41.14C49.2999 40.8476 49.7397 40.538 50.076 40.1166L50.0674 40.108Z" fill="#1D1D1B"></path>
    <path d="M37.6152 0H33.8986V1.40172H37.6152V0Z" fill="#1D1D1B"></path>
  </g>
  <defs>
    <clipPath id="clip0_104_57">
      <rect width="110" height="42" fill="white"></rect>
    </clipPath>
  </defs>
</svg>
